<svg id="Layer_1" data-name="Layer 1" xmlns="http://www.w3.org/2000/svg" xmlns:xlink="http://www.w3.org/1999/xlink" viewBox="0 0 1920 1080"><defs><clipPath id="clip-path"><rect x="-0.5" y="0.5" width="1920" height="1080" fill="none"/></clipPath></defs><title>Artboard 2</title><g clip-path="url(#clip-path)"><rect x="316.71" y="15.24" width="18.77" height="2884.2" transform="translate(-934.99 657.43) rotate(-45)" fill="#dbb620"/><rect x="359.54" y="-27.59" width="18.77" height="2884.2" transform="translate(-892.16 675.17) rotate(-45)" fill="#dbb620"/><rect x="402.38" y="-70.42" width="18.77" height="2884.2" transform="translate(-849.32 692.91) rotate(-45)" fill="#dbb620"/><rect x="445.21" y="-113.25" width="18.77" height="2884.2" transform="translate(-806.49 710.66) rotate(-45)" fill="#dbb620"/><rect x="488.04" y="-156.09" width="18.77" height="2884.2" transform="translate(-763.66 728.4) rotate(-45)" fill="#dbb620"/><rect x="530.87" y="-198.92" width="18.77" height="2884.2" transform="translate(-720.82 746.14) rotate(-45)" fill="#dbb620"/><rect x="573.71" y="-241.75" width="18.77" height="2884.2" transform="translate(-677.99 763.88) rotate(-45)" fill="#dbb620"/><rect x="616.54" y="-284.59" width="18.77" height="2884.2" transform="translate(-635.16 781.62) rotate(-45)" fill="#dbb620"/><rect x="659.37" y="-327.42" width="18.77" height="2884.2" transform="translate(-592.33 799.37) rotate(-45)" fill="#dbb620"/><rect x="702.21" y="-370.25" width="18.77" height="2884.2" transform="translate(-549.49 817.11) rotate(-45)" fill="#dbb620"/><rect x="745.04" y="-413.09" width="18.77" height="2884.2" transform="translate(-506.66 834.85) rotate(-45)" fill="#dbb620"/><rect x="787.87" y="-455.92" width="18.77" height="2884.2" transform="translate(-463.83 852.59) rotate(-45)" fill="#dbb620"/><rect x="830.7" y="-498.75" width="18.77" height="2884.2" transform="translate(-420.99 870.33) rotate(-45)" fill="#dbb620"/><rect x="873.54" y="-541.58" width="18.77" height="2884.2" transform="translate(-378.16 888.08) rotate(-45)" fill="#dbb620"/><rect x="916.37" y="-584.42" width="18.77" height="2884.2" transform="translate(-335.33 905.82) rotate(-45)" fill="#dbb620"/><rect x="959.2" y="-627.25" width="18.77" height="2884.2" transform="translate(-292.49 923.56) rotate(-45)" fill="#dbb620"/><rect x="1002.04" y="-670.08" width="18.77" height="2884.2" transform="translate(-249.66 941.3) rotate(-45)" fill="#dbb620"/><rect x="1044.87" y="-712.92" width="18.77" height="2884.2" transform="translate(-206.83 959.04) rotate(-45)" fill="#dbb620"/><rect x="1087.7" y="-755.75" width="18.77" height="2884.2" transform="translate(-164 976.79) rotate(-45)" fill="#dbb620"/><rect x="1130.53" y="-798.58" width="18.77" height="2884.2" transform="translate(-121.16 994.53) rotate(-45)" fill="#dbb620"/><rect x="1173.37" y="-841.41" width="18.77" height="2884.2" transform="translate(-78.33 1012.27) rotate(-45)" fill="#dbb620"/><rect x="1216.2" y="-884.25" width="18.77" height="2884.2" transform="translate(-35.5 1030.01) rotate(-45)" fill="#dbb620"/><rect x="1259.03" y="-927.08" width="18.77" height="2884.2" transform="translate(7.34 1047.75) rotate(-45)" fill="#dbb620"/><rect x="1301.87" y="-969.91" width="18.77" height="2884.2" transform="translate(50.17 1065.5) rotate(-45)" fill="#dbb620"/><rect x="1344.7" y="-1012.75" width="18.77" height="2884.2" transform="translate(93 1083.24) rotate(-45)" fill="#dbb620"/><rect x="1387.53" y="-1055.58" width="18.77" height="2884.2" transform="translate(135.83 1100.98) rotate(-45)" fill="#dbb620"/><rect x="1430.37" y="-1098.41" width="18.77" height="2884.2" transform="translate(178.67 1118.72) rotate(-45)" fill="#dbb620"/><rect x="1473.2" y="-1141.24" width="18.77" height="2884.2" transform="translate(221.5 1136.46) rotate(-45)" fill="#dbb620"/><rect x="1516.03" y="-1184.08" width="18.77" height="2884.2" transform="translate(264.33 1154.21) rotate(-45)" fill="#dbb620"/><rect x="1558.86" y="-1226.91" width="18.77" height="2884.2" transform="translate(307.17 1171.95) rotate(-45)" fill="#dbb620"/><rect x="1601.7" y="-1269.74" width="18.77" height="2884.2" transform="translate(350 1189.69) rotate(-45)" fill="#dbb620"/><rect x="1644.53" y="-1312.58" width="18.77" height="2884.2" transform="translate(392.83 1207.43) rotate(-45)" fill="#dbb620"/><rect x="1687.36" y="-1355.41" width="18.77" height="2884.2" transform="translate(435.66 1225.17) rotate(-45)" fill="#dbb620"/><rect x="1730.2" y="-1398.24" width="18.77" height="2884.2" transform="translate(478.5 1242.92) rotate(-45)" fill="#dbb620"/><rect x="1773.03" y="-1441.07" width="18.77" height="2884.2" transform="translate(521.33 1260.66) rotate(-45)" fill="#dbb620"/><rect x="1815.86" y="-1483.91" width="18.77" height="2884.2" transform="translate(564.16 1278.4) rotate(-45)" fill="#dbb620"/><rect x="1858.69" y="-1526.74" width="18.77" height="2884.2" transform="translate(607 1296.14) rotate(-45)" fill="#dbb620"/><rect x="1901.53" y="-1569.57" width="18.77" height="2884.2" transform="translate(649.83 1313.88) rotate(-45)" fill="#dbb620"/><rect x="1944.36" y="-1612.41" width="18.77" height="2884.2" transform="translate(692.66 1331.63) rotate(-45)" fill="#dbb620"/><rect x="1987.19" y="-1655.24" width="18.77" height="2884.2" transform="translate(735.49 1349.37) rotate(-45)" fill="#dbb620"/><rect x="340.85" y="-2.01" width="5.01" height="2884.2" transform="translate(-917.74 664.58) rotate(-45)"/><rect x="383.68" y="-44.84" width="5.01" height="2884.2" transform="translate(-874.9 682.32) rotate(-45)"/><rect x="426.51" y="-87.68" width="5.01" height="2884.2" transform="translate(-832.07 700.06) rotate(-45)"/><rect x="469.34" y="-130.51" width="5.01" height="2884.2" transform="translate(-789.24 717.8) rotate(-45)"/><rect x="512.18" y="-173.34" width="5.01" height="2884.2" transform="translate(-746.4 735.54) rotate(-45)"/><rect x="555.01" y="-216.17" width="5.01" height="2884.2" transform="translate(-703.57 753.29) rotate(-45)"/><rect x="597.84" y="-259.01" width="5.01" height="2884.2" transform="translate(-660.74 771.03) rotate(-45)"/><rect x="640.68" y="-301.84" width="5.01" height="2884.2" transform="translate(-617.9 788.77) rotate(-45)"/><rect x="683.51" y="-344.67" width="5.01" height="2884.2" transform="translate(-575.07 806.51) rotate(-45)"/><rect x="726.34" y="-387.51" width="5.01" height="2884.2" transform="translate(-532.24 824.25) rotate(-45)"/><rect x="769.17" y="-430.34" width="5.01" height="2884.2" transform="translate(-489.41 842) rotate(-45)"/><rect x="812.01" y="-473.17" width="5.01" height="2884.2" transform="translate(-446.57 859.74) rotate(-45)"/><rect x="854.84" y="-516" width="5.01" height="2884.2" transform="translate(-403.74 877.48) rotate(-45)"/><rect x="897.67" y="-558.84" width="5.01" height="2884.2" transform="translate(-360.91 895.22) rotate(-45)"/><rect x="940.51" y="-601.67" width="5.01" height="2884.2" transform="translate(-318.07 912.96) rotate(-45)"/><rect x="983.34" y="-644.5" width="5.01" height="2884.2" transform="translate(-275.24 930.71) rotate(-45)"/><rect x="1026.17" y="-687.34" width="5.01" height="2884.2" transform="translate(-232.41 948.45) rotate(-45)"/><rect x="1069" y="-730.17" width="5.01" height="2884.2" transform="translate(-189.58 966.19) rotate(-45)"/><rect x="1111.84" y="-773" width="5.01" height="2884.2" transform="translate(-146.74 983.93) rotate(-45)"/><rect x="1154.67" y="-815.83" width="5.01" height="2884.2" transform="translate(-103.91 1001.67) rotate(-45)"/><rect x="1197.5" y="-858.67" width="5.01" height="2884.2" transform="translate(-61.08 1019.42) rotate(-45)"/><rect x="1240.34" y="-901.5" width="5.01" height="2884.2" transform="translate(-18.24 1037.16) rotate(-45)"/><rect x="1283.17" y="-944.33" width="5.01" height="2884.2" transform="translate(24.59 1054.9) rotate(-45)"/><rect x="1326" y="-987.17" width="5.01" height="2884.2" transform="translate(67.42 1072.64) rotate(-45)"/><rect x="1368.83" y="-1030" width="5.01" height="2884.2" transform="translate(110.25 1090.38) rotate(-45)"/><rect x="1411.67" y="-1072.83" width="5.01" height="2884.2" transform="translate(153.09 1108.13) rotate(-45)"/><rect x="1454.5" y="-1115.67" width="5.01" height="2884.2" transform="translate(195.92 1125.87) rotate(-45)"/><rect x="1497.33" y="-1158.5" width="5.01" height="2884.2" transform="translate(238.75 1143.61) rotate(-45)"/><rect x="1540.17" y="-1201.33" width="5.01" height="2884.2" transform="translate(281.59 1161.35) rotate(-45)"/><rect x="1583" y="-1244.16" width="5.01" height="2884.2" transform="translate(324.42 1179.09) rotate(-45)"/><rect x="1625.83" y="-1287" width="5.01" height="2884.2" transform="translate(367.25 1196.84) rotate(-45)"/><rect x="1668.67" y="-1329.83" width="5.01" height="2884.2" transform="translate(410.08 1214.58) rotate(-45)"/><rect x="1711.5" y="-1372.66" width="5.01" height="2884.2" transform="translate(452.92 1232.32) rotate(-45)"/><rect x="1754.33" y="-1415.5" width="5.01" height="2884.2" transform="translate(495.75 1250.06) rotate(-45)"/><rect x="1797.16" y="-1458.33" width="5.01" height="2884.2" transform="translate(538.58 1267.8) rotate(-45)"/><rect x="1840" y="-1501.16" width="5.01" height="2884.2" transform="translate(581.42 1285.55) rotate(-45)"/><rect x="1882.83" y="-1543.99" width="5.01" height="2884.2" transform="translate(624.25 1303.29) rotate(-45)"/><rect x="1925.66" y="-1586.83" width="5.01" height="2884.2" transform="translate(667.08 1321.03) rotate(-45)"/><rect x="1968.5" y="-1629.66" width="5.01" height="2884.2" transform="translate(709.92 1338.77) rotate(-45)"/><rect x="2011.33" y="-1672.49" width="5.01" height="2884.2" transform="translate(752.75 1356.51) rotate(-45)"/></g></svg>